<svg width="18" height="15" viewBox="0 0 18 15" fill="none" xmlns="http://www.w3.org/2000/svg">
<g id="Hide">
<path id="Fill 1" fill-rule="evenodd" clip-rule="evenodd" d="M7.13399 10.0142C6.97399 10.0142 6.81399 9.95341 6.69233 9.83091C6.07733 9.21675 5.73816 8.40008 5.73816 7.53174C5.73816 5.73174 7.20149 4.26758 8.99983 4.26758C9.86483 4.26758 10.7048 4.61674 11.304 5.22591C11.5457 5.47258 11.5432 5.86758 11.2965 6.10924C11.0507 6.35258 10.6557 6.34841 10.4132 6.10341C10.0473 5.73091 9.53233 5.51758 8.99983 5.51758C7.89066 5.51758 6.98816 6.42091 6.98816 7.53174C6.98816 8.06591 7.19733 8.56925 7.57566 8.94758C7.81983 9.19175 7.81983 9.58675 7.57649 9.83091C7.45399 9.95341 7.29399 10.0142 7.13399 10.0142" fill="#727272"/>
<path id="Fill 3" fill-rule="evenodd" clip-rule="evenodd" d="M9.47285 10.7426C9.17702 10.7426 8.91368 10.5309 8.85868 10.2293C8.79702 9.89009 9.02202 9.56425 9.36202 9.50259C10.1787 9.35425 10.8254 8.70592 10.972 7.88842C11.0337 7.54925 11.3587 7.32592 11.6979 7.38425C12.0379 7.44509 12.2637 7.77009 12.2029 8.11009C11.9637 9.43759 10.912 10.4909 9.58535 10.7326C9.54785 10.7393 9.50952 10.7426 9.47285 10.7426" fill="#727272"/>
<g id="Group 7">
<mask id="mask0_26_261" style="mask-type:luminance" maskUnits="userSpaceOnUse" x="0" y="0" width="15" height="13">
<path id="Clip 6" fill-rule="evenodd" clip-rule="evenodd" d="M0.666626 0.853638H14.0718V12.6021H0.666626V0.853638Z" fill="white"/>
</mask>
<g mask="url(#mask0_26_261)">
<path id="Fill 5" fill-rule="evenodd" clip-rule="evenodd" d="M4.54525 12.6021C4.41025 12.6021 4.27442 12.5579 4.15942 12.4687C2.75025 11.3621 1.55942 9.73958 0.717754 7.77791C0.649421 7.61958 0.649421 7.44124 0.717754 7.28374C1.56859 5.31374 2.76692 3.68291 4.18359 2.56874C7.07192 0.28291 10.9169 0.27541 13.8344 2.58541C14.1053 2.79958 14.1511 3.19291 13.9369 3.46374C13.7219 3.73291 13.3303 3.78041 13.0586 3.56541C10.5869 1.60874 7.40275 1.61541 4.95775 3.55041C3.76109 4.49208 2.73359 5.86374 1.97525 7.53208C2.72609 9.19041 3.74442 10.5537 4.93192 11.4854C5.20359 11.6987 5.25025 12.0921 5.03692 12.3629C4.91359 12.5196 4.73025 12.6021 4.54525 12.6021" fill="#727272"/>
</g>
</g>
<g id="Group 10">
<mask id="mask1_26_261" style="mask-type:luminance" maskUnits="userSpaceOnUse" x="6" y="4" width="12" height="11">
<path id="Clip 9" fill-rule="evenodd" clip-rule="evenodd" d="M6.26453 4.2843H17.3333V14.2411H6.26453V4.2843Z" fill="white"/>
</mask>
<g mask="url(#mask1_26_261)">
<path id="Fill 8" fill-rule="evenodd" clip-rule="evenodd" d="M9.00005 14.2411C8.21922 14.2411 7.44255 14.1145 6.69255 13.8653C6.36505 13.7561 6.18755 13.402 6.29672 13.0745C6.40589 12.7461 6.75839 12.572 7.08755 12.6786C7.71005 12.8861 8.35339 12.9911 9.00005 12.9911C11.8567 12.9911 14.4676 10.9561 16.0251 7.53031C15.6451 6.69781 15.2026 5.94364 14.7076 5.28531C14.5001 5.00947 14.5551 4.61697 14.8309 4.40947C15.1059 4.20197 15.4984 4.25864 15.7059 4.53364C16.3092 5.33447 16.8392 6.26031 17.2817 7.28197C17.3509 7.44031 17.3509 7.62031 17.2817 7.77781C15.5351 11.8253 12.4392 14.2411 9.00005 14.2411" fill="#727272"/>
</g>
</g>
<g id="Group 13">
<mask id="mask2_26_261" style="mask-type:luminance" maskUnits="userSpaceOnUse" x="1" y="0" width="16" height="15">
<path id="Clip 12" fill-rule="evenodd" clip-rule="evenodd" d="M1.80298 0.333618H16.1976V14.7278H1.80298V0.333618Z" fill="white"/>
</mask>
<g mask="url(#mask2_26_261)">
<path id="Fill 11" fill-rule="evenodd" clip-rule="evenodd" d="M2.42777 14.7278C2.26777 14.7278 2.10777 14.667 1.9861 14.5445C1.74194 14.3003 1.74194 13.9053 1.9861 13.6611L15.1311 0.516133C15.3753 0.271966 15.7703 0.271966 16.0144 0.516133C16.2586 0.760299 16.2586 1.15613 16.0144 1.4003L2.86944 14.5445C2.74777 14.667 2.58777 14.7278 2.42777 14.7278" fill="#727272"/>
</g>
</g>
</g>
</svg>
