<svg width="16" height="17" viewBox="0 0 16 17" fill="none" xmlns="http://www.w3.org/2000/svg">
<path id="Instagram" d="M8 2.2349C10.1333 2.2349 10.4 2.2349 11.2667 2.30175C13.4667 2.3686 14.4667 3.43823 14.5333 5.57749C14.6 6.44657 14.6 6.64712 14.6 8.78638C14.6 10.9256 14.6 11.193 14.5333 11.9953C14.4667 14.1345 13.4 15.2042 11.2667 15.271C10.4 15.3379 10.2 15.3379 8 15.3379C5.86667 15.3379 5.6 15.3379 4.8 15.271C2.6 15.2042 1.6 14.1345 1.53333 11.9953C1.46667 11.1262 1.46667 10.9256 1.46667 8.78638C1.46667 6.64712 1.46667 6.37972 1.53333 5.57749C1.6 3.43823 2.66667 2.3686 4.8 2.30175C5.6 2.2349 5.86667 2.2349 8 2.2349ZM8 0.76416C5.8 0.76416 5.53333 0.76416 4.73333 0.831012C1.8 0.964716 0.2 2.56916 0.0666667 5.51064C0 6.31286 0 6.58027 0 8.78638C0 10.9925 0 11.2599 0.0666667 12.0621C0.2 15.0036 1.8 16.608 4.73333 16.7418C5.53333 16.8086 5.8 16.8086 8 16.8086C10.2 16.8086 10.4667 16.8086 11.2667 16.7418C14.2 16.608 15.8 15.0036 15.9333 12.0621C16 11.2599 16 10.9925 16 8.78638C16 6.58027 16 6.31286 15.9333 5.51064C15.8 2.56916 14.2 0.964716 11.2667 0.831012C10.4667 0.76416 10.2 0.76416 8 0.76416ZM8 4.64157C5.73333 4.64157 3.86667 6.51342 3.86667 8.78638C3.86667 11.0593 5.73333 12.9312 8 12.9312C10.2667 12.9312 12.1333 11.0593 12.1333 8.78638C12.1333 6.51342 10.2667 4.64157 8 4.64157ZM8 11.4605C6.53333 11.4605 5.33333 10.2571 5.33333 8.78638C5.33333 7.31564 6.53333 6.11231 8 6.11231C9.46667 6.11231 10.6667 7.31564 10.6667 8.78638C10.6667 10.2571 9.46667 11.4605 8 11.4605ZM12.2667 3.57194C11.7333 3.57194 11.3333 3.97305 11.3333 4.50786C11.3333 5.04268 11.7333 5.44379 12.2667 5.44379C12.8 5.44379 13.2 5.04268 13.2 4.50786C13.2 3.97305 12.8 3.57194 12.2667 3.57194Z" fill="#46A358" fill-opacity="0.6"/>
</svg>
