<svg width="16" height="13" viewBox="0 0 16 13" fill="none" xmlns="http://www.w3.org/2000/svg">
<path id="Twitter" d="M5.03186 12.9573C11.0699 12.9573 14.3718 7.97204 14.3718 3.6493C14.3718 3.50766 14.3689 3.36675 14.3624 3.22638C15.0033 2.76466 15.5605 2.18832 16 1.53254C15.4118 1.79296 14.7789 1.96833 14.1149 2.0474C14.7926 1.64244 15.313 1.00154 15.5585 0.237678C14.9241 0.612535 14.2217 0.884928 13.4742 1.03182C12.8749 0.395999 12.0218 -0.00170898 11.0779 -0.00170898C9.26483 -0.00170898 7.79464 1.46345 7.79464 3.26936C7.79464 3.52616 7.82357 3.7757 7.87962 4.01527C5.1516 3.87871 2.73239 2.57677 1.11352 0.597483C0.831273 1.08079 0.668767 1.64262 0.668767 2.24163C0.668767 3.37654 1.24837 4.37852 2.12968 4.96484C1.59121 4.94833 1.08531 4.80071 0.642926 4.55552C0.642198 4.56912 0.642198 4.58291 0.642198 4.59723C0.642198 6.18172 1.77392 7.50451 3.27578 7.80429C3.00008 7.87919 2.71001 7.91945 2.41047 7.91945C2.19901 7.91945 1.99338 7.89841 1.79339 7.86051C2.21121 9.16009 3.42318 10.106 4.86007 10.1327C3.73636 11.0103 2.32094 11.5331 0.783049 11.5331C0.518272 11.5331 0.256952 11.518 0 11.4878C1.45273 12.4156 3.17769 12.9573 5.03186 12.9573Z" fill="#46A358" fill-opacity="0.6"/>
</svg>
